<?xml version="1.0" encoding="iso-8859-1"?>
<!-- Generator: Adobe Illustrator 19.0.0, SVG Export Plug-In . SVG Version: 6.00 Build 0)  -->
<svg version="1.1" id="Layer_1" xmlns="http://www.w3.org/2000/svg" xmlns:xlink="http://www.w3.org/1999/xlink" x="0px" y="0px"
	 viewBox="0 0 294.059 294.059" style="enable-background:new 0 0 294.059 294.059;" xml:space="preserve">
<g>
	<path style="fill:#1E252B;" d="M273.862,293.367c-5.169,0-10.339-1.973-14.282-5.915L76.878,104.749
		c-7.888-7.887-7.888-20.676,0-28.563c7.887-7.889,20.677-7.889,28.564,0l182.702,182.701c7.887,7.889,7.887,20.676,0,28.564
		C284.201,291.394,279.031,293.367,273.862,293.367z"/>
	<path style="fill:#333E48;" d="M169.401,188.907c-5.169,0-10.338-1.972-14.282-5.917l-78.24-78.241
		c-7.888-7.887-7.888-20.676,0-28.563c7.887-7.889,20.677-7.889,28.564,0l78.24,78.24c7.888,7.888,7.888,20.676,0,28.564
		C179.739,186.935,174.57,188.907,169.401,188.907z"/>
	<g>
		<polygon style="fill:#FFC843;" points="91.161,158.055 59.5,180.244 49.51,142.896 10.995,139.544 27.348,104.512 0,77.185 
			35.044,60.862 31.66,22.348 68.998,32.371 91.161,0.693 113.322,32.371 150.661,22.348 147.276,60.862 182.321,77.185 
			154.973,104.512 171.326,139.544 132.811,142.896 122.821,180.244 		"/>
		<polygon style="fill:#FFE09B;" points="91.161,130.652 72.891,143.456 67.126,121.903 44.9,119.967 54.336,99.755 38.554,83.983 
			58.778,74.564 56.824,52.34 78.371,58.125 91.161,39.842 103.95,58.125 125.497,52.34 123.544,74.564 143.767,83.983 
			127.984,99.755 137.421,119.967 115.195,121.903 109.43,143.456 		"/>
	</g>
</g>
<g>
</g>
<g>
</g>
<g>
</g>
<g>
</g>
<g>
</g>
<g>
</g>
<g>
</g>
<g>
</g>
<g>
</g>
<g>
</g>
<g>
</g>
<g>
</g>
<g>
</g>
<g>
</g>
<g>
</g>
</svg>
